<svg xmlns="http://www.w3.org/2000/svg" viewBox="0 0 742 699"><defs><style>.cls-1{fill:#d5762c;}.cls-2{fill:#565656;}.cls-3{fill:#fff;}.cls-4{fill:none;stroke:#000;stroke-miterlimit:10;stroke-width:5px;}</style></defs><title>controls1</title><g id="Layer_1" data-name="Layer 1"><rect class="cls-1" width="742" height="699" rx="84.71" ry="84.71"/></g><g id="Layer_3" data-name="Layer 3"><rect class="cls-2" x="84" y="60" width="579" height="579" rx="84.71" ry="84.71"/><rect class="cls-1" x="164" y="137" width="437" height="437" rx="84.71" ry="84.71"/></g><g id="Layer_2" data-name="Layer 2"><polygon class="cls-3" points="545 342.57 419.5 415.36 294 488.15 294 342.57 294 197 419.5 269.79 545 342.57"/><line class="cls-4" x1="41.5" y1="103" x2="41.5" y2="137"/><path class="cls-4" d="M339.5,77.5l-1.94,3.4a34,34,0,0,0-5.14,20.91L333.5,115" transform="translate(-292 -29)"/><path class="cls-4" d="M373.22,63.85l-3.91-.16a34,34,0,0,0-20.94,5" transform="translate(-292 -29)"/><line class="cls-4" x1="41.5" y1="163" x2="41.5" y2="197"/><line class="cls-4" x1="41.5" y1="226" x2="41.5" y2="260"/><line class="cls-4" x1="41.5" y1="286" x2="41.5" y2="320"/><line class="cls-4" x1="41.5" y1="346" x2="41.5" y2="380"/><line class="cls-4" x1="41.5" y1="409" x2="41.5" y2="443"/><line class="cls-4" x1="41.5" y1="470" x2="41.5" y2="504"/><line class="cls-4" x1="41.5" y1="530" x2="41.5" y2="564"/><line class="cls-4" x1="41.5" y1="578" x2="41.5" y2="612"/><line class="cls-4" x1="626" y1="32.5" x2="592" y2="32.5"/><line class="cls-4" x1="566" y1="32.5" x2="532" y2="32.5"/><line class="cls-4" x1="503" y1="32.5" x2="469" y2="32.5"/><line class="cls-4" x1="443" y1="32.5" x2="409" y2="32.5"/><line class="cls-4" x1="383" y1="32.5" x2="349" y2="32.5"/><line class="cls-4" x1="320" y1="32.5" x2="286" y2="32.5"/><line class="cls-4" x1="259" y1="32.5" x2="225" y2="32.5"/><line class="cls-4" x1="199" y1="32.5" x2="165" y2="32.5"/><line class="cls-4" x1="690.5" y1="595" x2="690.5" y2="561"/><path class="cls-4" d="M976.5,678.5l1.94-3.4a34,34,0,0,0,5.14-20.91L982.5,641" transform="translate(-292 -29)"/><path class="cls-4" d="M942.78,692.15l3.91.16a34,34,0,0,0,20.94-5" transform="translate(-292 -29)"/><path class="cls-4" d="M351,693.23l3.6,1.54A34,34,0,0,0,376,697.52L389,695" transform="translate(-292 -29)"/><path class="cls-4" d="M333.67,661.26l.28,3.91a34,34,0,0,0,7.34,20.24" transform="translate(-292 -29)"/><path class="cls-4" d="M946.07,64l3.64,1.45a34,34,0,0,1,17.06,13.14l7.38,11" transform="translate(-292 -29)"/><line class="cls-4" x1="690.5" y1="535" x2="690.5" y2="501"/><line class="cls-4" x1="690.5" y1="472" x2="690.5" y2="438"/><line class="cls-4" x1="690.5" y1="412" x2="690.5" y2="378"/><line class="cls-4" x1="690.5" y1="352" x2="690.5" y2="318"/><line class="cls-4" x1="690.5" y1="289" x2="690.5" y2="255"/><line class="cls-4" x1="690.5" y1="228" x2="690.5" y2="194"/><line class="cls-4" x1="690.5" y1="168" x2="690.5" y2="134"/><line class="cls-4" x1="691.5" y1="120" x2="691.5" y2="86"/><line class="cls-4" x1="119" y1="666.5" x2="153" y2="666.5"/><line class="cls-4" x1="166" y1="665.5" x2="200" y2="665.5"/><line class="cls-4" x1="229" y1="665.5" x2="263" y2="665.5"/><line class="cls-4" x1="289" y1="665.5" x2="323" y2="665.5"/><line class="cls-4" x1="349" y1="665.5" x2="383" y2="665.5"/><line class="cls-4" x1="412" y1="665.5" x2="446" y2="665.5"/><line class="cls-4" x1="473" y1="665.5" x2="507" y2="665.5"/><line class="cls-4" x1="584" y1="666.5" x2="618" y2="666.5"/><line class="cls-4" x1="533" y1="665.5" x2="567" y2="665.5"/><line class="cls-4" x1="136" y1="32.5" x2="102" y2="32.5"/></g></svg>